M48
;Layer_Color=9474304
;FILE_FORMAT=2:3
INCH,LZ
;TYPE=PLATED
T01F00S00C0.028
T02F00S00C0.031
T03F00S00C0.040
;TYPE=NON_PLATED
T04F00S00C0.035
%
T01
X00655Y00075
X0076Y0007
X0081Y0016
X00815Y00295
X00705
X0063Y0078
X0075Y0087
X00805Y0096
X00515Y00955
X0041Y00885
X00335Y0096
X00325Y0114
X00425Y0109
X00415Y01215
X0055Y011
X00535Y01405
X00335Y01485
X00245Y0141
X00185Y01325
X0024Y01565
X00365Y017
X0044Y01745
X00555
X00508Y01933
X00328Y01858
X00235Y0106
X00043Y01108
Y00998
X00045Y00865
Y00785
X00115Y00705
X00038Y01298
Y01498
Y01703
Y01903
Y02098
Y02298
Y02498
X00043Y02723
X0011Y02915
X-00002Y03033
X-00017Y03138
X00095Y0317
X-00022Y03318
Y03418
X00193Y03493
X00188Y03333
X0034Y03405
X00385Y0318
X003Y0304
X0019Y03075
X00185Y028
X00305Y02885
X00398Y02958
X00573Y02938
X00568Y03118
Y03283
X00703Y03323
Y03203
X00693Y03043
X00763Y02853
X00758Y02733
X00763Y02588
X0076Y02475
X00766Y02294
X0076Y021
X0056Y02095
X0048Y02093
X0032Y02175
X0036Y02345
X00303Y02458
X00203
Y02608
X0031Y02705
X00403Y02748
Y02583
X00175Y02035
X0063Y0343
T02
X0028Y01637
Y01735
T03
X007Y01248
Y01348
Y01448
Y01548
Y01648
Y01748
Y01848
Y01948
X001
Y01848
Y01748
Y01648
Y01548
Y01448
Y01348
Y01248
Y02048
Y02148
Y02248
Y02348
Y02448
Y02548
Y02648
X007
Y02548
Y02448
Y02348
Y02248
Y02148
Y02048
T04
X00795Y00487
Y00683
M30
