G04*
G04 #@! TF.GenerationSoftware,Altium Limited,Altium Designer,25.2.1 (25)*
G04*
G04 Layer_Color=8388736*
%FSLAX24Y24*%
%MOIN*%
G70*
G04*
G04 #@! TF.SameCoordinates,7B2066EB-CBC2-4D7E-9A59-9876444C2551*
G04*
G04*
G04 #@! TF.FilePolarity,Negative*
G04*
G01*
G75*
%ADD16R,0.0591X0.0276*%
%ADD17R,0.0315X0.0394*%
%ADD18R,0.0282X0.0265*%
%ADD20R,0.0630X0.0400*%
G04:AMPARAMS|DCode=31|XSize=37mil|YSize=107mil|CornerRadius=0mil|HoleSize=0mil|Usage=FLASHONLY|Rotation=45.000|XOffset=0mil|YOffset=0mil|HoleType=Round|Shape=Rectangle|*
%AMROTATEDRECTD31*
4,1,4,0.0247,-0.0509,-0.0509,0.0247,-0.0247,0.0509,0.0509,-0.0247,0.0247,-0.0509,0.0*
%
%ADD31ROTATEDRECTD31*%

G04:AMPARAMS|DCode=32|XSize=37mil|YSize=107mil|CornerRadius=0mil|HoleSize=0mil|Usage=FLASHONLY|Rotation=135.000|XOffset=0mil|YOffset=0mil|HoleType=Round|Shape=Rectangle|*
%AMROTATEDRECTD32*
4,1,4,0.0509,0.0247,-0.0247,-0.0509,-0.0509,-0.0247,0.0247,0.0509,0.0509,0.0247,0.0*
%
%ADD32ROTATEDRECTD32*%

%ADD33R,0.0281X0.0367*%
%ADD34R,0.0356X0.0769*%
%ADD35R,0.0474X0.0690*%
%ADD36R,0.0651X0.0474*%
%ADD37R,0.0671X0.0671*%
%ADD38R,0.0592X0.0671*%
%ADD39R,0.0395X0.0631*%
%ADD40R,0.0395X0.0671*%
%ADD41R,0.0655X0.1694*%
%ADD42R,0.0844X0.1694*%
%ADD43R,0.0533X0.1734*%
%ADD44C,0.0354*%
%ADD45C,0.0533*%
%ADD46C,0.0682*%
%ADD47R,0.0682X0.0682*%
%ADD48C,0.0580*%
D16*
X7266Y4669D02*
D03*
Y5259D02*
D03*
Y6441D02*
D03*
Y7031D02*
D03*
D17*
X7541Y3822D02*
D03*
Y7878D02*
D03*
X8368Y3822D02*
D03*
Y7878D02*
D03*
D18*
X6860Y2113D02*
D03*
X7237D02*
D03*
D20*
X4400Y16540D02*
D03*
Y15160D02*
D03*
X5550Y15120D02*
D03*
Y16500D02*
D03*
D31*
X6769Y9669D02*
D03*
X6421Y9321D02*
D03*
X6073Y8973D02*
D03*
X5725Y8625D02*
D03*
X5377Y8277D02*
D03*
X5029Y7929D02*
D03*
X4681Y7581D02*
D03*
X1231Y11031D02*
D03*
X1579Y11379D02*
D03*
X1927Y11727D02*
D03*
X2275Y12075D02*
D03*
X2623Y12423D02*
D03*
X2971Y12771D02*
D03*
X3319Y13119D02*
D03*
D32*
Y7581D02*
D03*
X2971Y7929D02*
D03*
X2623Y8277D02*
D03*
X2275Y8625D02*
D03*
X1927Y8973D02*
D03*
X1579Y9321D02*
D03*
X1231Y9669D02*
D03*
X4681Y13119D02*
D03*
X5029Y12771D02*
D03*
X5377Y12423D02*
D03*
X5725Y12075D02*
D03*
X6073Y11727D02*
D03*
X6421Y11379D02*
D03*
X6769Y11031D02*
D03*
D33*
X6862Y1500D02*
D03*
X6500D02*
D03*
D34*
X2750Y22500D02*
D03*
X3183D02*
D03*
X3616D02*
D03*
X4049D02*
D03*
X4482D02*
D03*
X4915D02*
D03*
X5348D02*
D03*
X5781D02*
D03*
D35*
X1815Y18248D02*
D03*
D36*
X6224Y18868D02*
D03*
D37*
X1785Y22451D02*
D03*
D38*
X6254D02*
D03*
D39*
X1657Y19203D02*
D03*
D40*
X6352Y19459D02*
D03*
D41*
X8305Y36150D02*
D03*
D42*
X6455D02*
D03*
X5449D02*
D03*
X4443D02*
D03*
X3437D02*
D03*
X2431D02*
D03*
X419Y35284D02*
D03*
X7461Y36140D02*
D03*
X1425Y36150D02*
D03*
D43*
X5650Y1550D02*
D03*
X1142D02*
D03*
D44*
X7955Y6834D02*
D03*
Y4866D02*
D03*
D45*
X2800Y17350D02*
D03*
Y16366D02*
D03*
D46*
X7000Y12484D02*
D03*
Y13484D02*
D03*
Y14484D02*
D03*
Y15484D02*
D03*
Y16484D02*
D03*
Y17484D02*
D03*
Y18484D02*
D03*
Y19484D02*
D03*
Y20484D02*
D03*
Y21484D02*
D03*
Y22484D02*
D03*
Y23484D02*
D03*
Y24484D02*
D03*
Y25484D02*
D03*
X1000Y12484D02*
D03*
Y13484D02*
D03*
Y14484D02*
D03*
Y15484D02*
D03*
Y16484D02*
D03*
Y17484D02*
D03*
Y18484D02*
D03*
Y19484D02*
D03*
Y20484D02*
D03*
Y21484D02*
D03*
Y22484D02*
D03*
Y23484D02*
D03*
Y24484D02*
D03*
Y25484D02*
D03*
D47*
X7000Y26484D02*
D03*
X1000D02*
D03*
D48*
X3600Y23450D02*
D03*
X4400Y17450D02*
D03*
X6300Y7800D02*
D03*
X7500Y8700D02*
D03*
X8050Y9600D02*
D03*
X5350Y14050D02*
D03*
X3200Y21750D02*
D03*
X4800Y20931D02*
D03*
X5600Y20950D02*
D03*
X1750Y20350D02*
D03*
X5550Y17450D02*
D03*
M02*
