G04*
G04 #@! TF.GenerationSoftware,Altium Limited,Altium Designer,25.2.1 (25)*
G04*
G04 Layer_Color=128*
%FSLAX24Y24*%
%MOIN*%
G70*
G04*
G04 #@! TF.SameCoordinates,7B2066EB-CBC2-4D7E-9A59-9876444C2551*
G04*
G04*
G04 #@! TF.FilePolarity,Positive*
G04*
G01*
G75*
%ADD13C,0.0050*%
D13*
X7778Y6834D02*
X8132D01*
X7955Y6657D02*
Y7011D01*
X7778Y4866D02*
X8132D01*
X7955Y4689D02*
Y5043D01*
X2643Y17350D02*
X2957D01*
X2800Y17193D02*
Y17507D01*
X2643Y16366D02*
X2957D01*
X2800Y16208D02*
Y16523D01*
X6799Y12484D02*
X7201D01*
X7000Y12283D02*
Y12685D01*
X6799Y13484D02*
X7201D01*
X7000Y13283D02*
Y13685D01*
X6799Y14484D02*
X7201D01*
X7000Y14283D02*
Y14685D01*
X6799Y15484D02*
X7201D01*
X7000Y15283D02*
Y15685D01*
X6799Y16484D02*
X7201D01*
X7000Y16283D02*
Y16685D01*
X6799Y17484D02*
X7201D01*
X7000Y17283D02*
Y17685D01*
X6799Y18484D02*
X7201D01*
X7000Y18283D02*
Y18685D01*
X6799Y19484D02*
X7201D01*
X7000Y19283D02*
Y19685D01*
X6799Y20484D02*
X7201D01*
X7000Y20283D02*
Y20685D01*
X6799Y21484D02*
X7201D01*
X7000Y21283D02*
Y21685D01*
X6799Y22484D02*
X7201D01*
X7000Y22283D02*
Y22685D01*
X6799Y23484D02*
X7201D01*
X7000Y23283D02*
Y23685D01*
X6799Y24484D02*
X7201D01*
X7000Y24283D02*
Y24685D01*
X6799Y25484D02*
X7201D01*
X7000Y25283D02*
Y25685D01*
X6799Y26484D02*
X7201D01*
X7000Y26283D02*
Y26685D01*
X799Y12484D02*
X1201D01*
X1000Y12283D02*
Y12685D01*
X799Y13484D02*
X1201D01*
X1000Y13283D02*
Y13685D01*
X799Y14484D02*
X1201D01*
X1000Y14283D02*
Y14685D01*
X799Y15484D02*
X1201D01*
X1000Y15283D02*
Y15685D01*
X799Y16484D02*
X1201D01*
X1000Y16283D02*
Y16685D01*
X799Y17484D02*
X1201D01*
X1000Y17283D02*
Y17685D01*
X799Y18484D02*
X1201D01*
X1000Y18283D02*
Y18685D01*
X799Y19484D02*
X1201D01*
X1000Y19283D02*
Y19685D01*
X799Y20484D02*
X1201D01*
X1000Y20283D02*
Y20685D01*
X799Y21484D02*
X1201D01*
X1000Y21283D02*
Y21685D01*
X799Y22484D02*
X1201D01*
X1000Y22283D02*
Y22685D01*
X799Y23484D02*
X1201D01*
X1000Y23283D02*
Y23685D01*
X799Y24484D02*
X1201D01*
X1000Y24283D02*
Y24685D01*
X799Y25484D02*
X1201D01*
X1000Y25283D02*
Y25685D01*
X799Y26484D02*
X1201D01*
X1000Y26283D02*
Y26685D01*
X7520Y22940D02*
X7800D01*
X7660Y22800D02*
Y23080D01*
X3460Y23450D02*
X3740D01*
X3600Y23310D02*
Y23590D01*
X4260Y17450D02*
X4540D01*
X4400Y17310D02*
Y17590D01*
X6910Y2950D02*
X7190D01*
X7050Y2810D02*
Y3090D01*
X8010Y2950D02*
X8290D01*
X8150Y2810D02*
Y3090D01*
X7960Y1600D02*
X8240D01*
X8100Y1460D02*
Y1740D01*
X7460Y700D02*
X7740D01*
X7600Y560D02*
Y840D01*
X6410Y750D02*
X6690D01*
X6550Y610D02*
Y890D01*
X1010Y7050D02*
X1290D01*
X1150Y6910D02*
Y7190D01*
X6160Y7800D02*
X6440D01*
X6300Y7660D02*
Y7940D01*
X7360Y8700D02*
X7640D01*
X7500Y8560D02*
Y8840D01*
X7910Y9600D02*
X8190D01*
X8050Y9460D02*
Y9740D01*
X7460Y21000D02*
X7740D01*
X7600Y20860D02*
Y21140D01*
X1710Y13250D02*
X1990D01*
X1850Y13110D02*
Y13390D01*
X2310Y14100D02*
X2590D01*
X2450Y13960D02*
Y14240D01*
X3210Y14850D02*
X3490D01*
X3350Y14710D02*
Y14990D01*
X2260Y15650D02*
X2540D01*
X2400Y15510D02*
Y15790D01*
X7460Y24750D02*
X7740D01*
X7600Y24610D02*
Y24890D01*
X4937Y19332D02*
X5217D01*
X5077Y19192D02*
Y19472D01*
X3137Y18582D02*
X3417D01*
X3277Y18442D02*
Y18722D01*
X3510Y17000D02*
X3790D01*
X3650Y16860D02*
Y17140D01*
X7487Y25882D02*
X7767D01*
X7627Y25742D02*
Y26022D01*
X7487Y28532D02*
X7767D01*
X7627Y28392D02*
Y28672D01*
X7437Y27332D02*
X7717D01*
X7577Y27192D02*
Y27472D01*
X5537Y31182D02*
X5817D01*
X5677Y31042D02*
Y31322D01*
X5537Y32832D02*
X5817D01*
X5677Y32692D02*
Y32972D01*
X6160Y34300D02*
X6440D01*
X6300Y34160D02*
Y34440D01*
X6887Y33232D02*
X7167D01*
X7027Y33092D02*
Y33372D01*
X6887Y32032D02*
X7167D01*
X7027Y31892D02*
Y32172D01*
X6787Y30432D02*
X7067D01*
X6927Y30292D02*
Y30572D01*
X5587Y29382D02*
X5867D01*
X5727Y29242D02*
Y29522D01*
X3887Y25832D02*
X4167D01*
X4027Y25692D02*
Y25972D01*
X3887Y27482D02*
X4167D01*
X4027Y27342D02*
Y27622D01*
X3837Y29582D02*
X4117D01*
X3977Y29442D02*
Y29722D01*
X2960Y27050D02*
X3240D01*
X3100Y26910D02*
Y27190D01*
X2910Y28850D02*
X3190D01*
X3050Y28710D02*
Y28990D01*
X1760Y30750D02*
X2040D01*
X1900Y30610D02*
Y30890D01*
X3710Y31800D02*
X3990D01*
X3850Y31660D02*
Y31940D01*
X3260Y34050D02*
X3540D01*
X3400Y33910D02*
Y34190D01*
X2860Y30400D02*
X3140D01*
X3000Y30260D02*
Y30540D01*
X960Y29150D02*
X1240D01*
X1100Y29010D02*
Y29290D01*
X1710Y28000D02*
X1990D01*
X1850Y27860D02*
Y28140D01*
X287Y9982D02*
X567D01*
X427Y9842D02*
Y10122D01*
X310Y8650D02*
X590D01*
X450Y8510D02*
Y8790D01*
X810Y31700D02*
X1090D01*
X950Y31560D02*
Y31840D01*
X2887Y24582D02*
X3167D01*
X3027Y24442D02*
Y24722D01*
X1887Y24582D02*
X2167D01*
X2027Y24442D02*
Y24722D01*
X1887Y26082D02*
X2167D01*
X2027Y25942D02*
Y26222D01*
X1737Y33332D02*
X2017D01*
X1877Y33192D02*
Y33472D01*
X1787Y34932D02*
X2067D01*
X1927Y34792D02*
Y35072D01*
X-363Y34182D02*
X-83D01*
X-223Y34042D02*
Y34322D01*
X-363Y33182D02*
X-83D01*
X-223Y33042D02*
Y33322D01*
X-313Y31382D02*
X-33D01*
X-173Y31242D02*
Y31522D01*
X-163Y30332D02*
X117D01*
X-23Y30192D02*
Y30472D01*
X287Y27232D02*
X567D01*
X427Y27092D02*
Y27372D01*
X237Y24982D02*
X517D01*
X377Y24842D02*
Y25122D01*
X237Y22982D02*
X517D01*
X377Y22842D02*
Y23122D01*
X237Y20982D02*
X517D01*
X377Y20842D02*
Y21122D01*
X237Y19032D02*
X517D01*
X377Y18892D02*
Y19172D01*
X237Y17032D02*
X517D01*
X377Y16892D02*
Y17172D01*
X237Y14982D02*
X517D01*
X377Y14842D02*
Y15122D01*
X237Y12982D02*
X517D01*
X377Y12842D02*
Y13122D01*
X287Y11082D02*
X567D01*
X427Y10942D02*
Y11222D01*
X310Y7850D02*
X590D01*
X450Y7710D02*
Y7990D01*
X4110Y10900D02*
X4390D01*
X4250Y10760D02*
Y11040D01*
X5010Y9550D02*
X5290D01*
X5150Y9410D02*
Y9690D01*
X3960Y8850D02*
X4240D01*
X4100Y8710D02*
Y8990D01*
X4010Y12150D02*
X4290D01*
X4150Y12010D02*
Y12290D01*
X2210Y10600D02*
X2490D01*
X2350Y10460D02*
Y10740D01*
X3110Y11400D02*
X3390D01*
X3250Y11260D02*
Y11540D01*
X5360Y11000D02*
X5640D01*
X5500Y10860D02*
Y11140D01*
X3210Y9600D02*
X3490D01*
X3350Y9460D02*
Y9740D01*
X5210Y14050D02*
X5490D01*
X5350Y13910D02*
Y14190D01*
X3060Y21750D02*
X3340D01*
X3200Y21610D02*
Y21890D01*
X4660Y20931D02*
X4940D01*
X4800Y20791D02*
Y21071D01*
X5460Y20950D02*
X5740D01*
X5600Y20810D02*
Y21090D01*
X1610Y20350D02*
X1890D01*
X1750Y20210D02*
Y20490D01*
X5410Y17450D02*
X5690D01*
X5550Y17310D02*
Y17590D01*
M02*
