G04*
G04 #@! TF.GenerationSoftware,Altium Limited,Altium Designer,25.2.1 (25)*
G04*
G04 Layer_Color=65535*
%FSLAX24Y24*%
%MOIN*%
G70*
G04*
G04 #@! TF.SameCoordinates,7B2066EB-CBC2-4D7E-9A59-9876444C2551*
G04*
G04*
G04 #@! TF.FilePolarity,Positive*
G04*
G01*
G75*
%ADD10C,0.0098*%
%ADD11C,0.0079*%
%ADD12C,0.0060*%
%ADD13C,0.0050*%
%ADD14C,0.0100*%
%ADD15C,0.0030*%
G36*
X2575Y7427D02*
X2504Y7356D01*
X2398Y7462D01*
X2469Y7533D01*
X2575Y7427D01*
D02*
G37*
G36*
X2121Y12819D02*
X2227Y12925D01*
X2156Y12996D01*
X2050Y12890D01*
X2121Y12819D01*
D02*
G37*
D10*
X7266Y4315D02*
G03*
X7266Y4315I-49J0D01*
G01*
D11*
X2789Y23140D02*
G03*
X2789Y23140I-39J0D01*
G01*
X6085Y1550D02*
G03*
X6085Y1550I-39J0D01*
G01*
X7404Y4167D02*
Y4383D01*
Y5545D02*
Y6155D01*
Y7317D02*
Y7533D01*
X7846Y7799D02*
X8063D01*
X7846Y3901D02*
X8063D01*
X8673Y5574D02*
Y6126D01*
X9106D01*
Y5574D02*
Y6126D01*
X8673Y5574D02*
X9106D01*
X8673Y3901D02*
Y7799D01*
X6719Y1823D02*
X7378D01*
X6719Y2403D02*
X7378D01*
D12*
X4045Y15485D02*
Y16215D01*
X4755Y15485D02*
Y16215D01*
X3563Y7378D02*
X4000Y6942D01*
X592Y10350D02*
X1028Y10787D01*
X4000Y13758D02*
X4437Y13322D01*
X6972Y10787D02*
X7408Y10350D01*
X4000Y6942D02*
X4437Y7378D01*
X592Y10350D02*
X1028Y9913D01*
X3563Y13322D02*
X4000Y13758D01*
X6972Y9913D02*
X7408Y10350D01*
X5905Y15445D02*
Y16175D01*
X5195Y15445D02*
Y16175D01*
D13*
X6362Y18140D02*
Y18545D01*
X1657Y19604D02*
Y22030D01*
X2128Y18140D02*
X6362D01*
Y19880D02*
Y22030D01*
X3152Y16070D02*
X3292D01*
X3152Y17645D02*
X3292D01*
X2308Y16070D02*
X2448D01*
X2308Y17645D02*
X2448D01*
X3292Y16070D02*
Y17645D01*
X2308Y16070D02*
Y17645D01*
X1492Y763D02*
X5300D01*
X1492Y2337D02*
X5300D01*
D14*
X-589Y31590D02*
X8911Y31590D01*
X-589Y31590D02*
Y35790D01*
X1061Y37440D01*
X8911D01*
Y31590D02*
Y37440D01*
X387Y32639D02*
X287Y32739D01*
X87D01*
X-13Y32639D01*
Y32539D01*
X87Y32439D01*
X287D01*
X387Y32339D01*
Y32239D01*
X287Y32139D01*
X87D01*
X-13Y32239D01*
X587Y32739D02*
Y32139D01*
X887D01*
X987Y32239D01*
Y32639D01*
X887Y32739D01*
X587D01*
X2187Y32639D02*
X2087Y32739D01*
X1887D01*
X1787Y32639D01*
Y32239D01*
X1887Y32139D01*
X2087D01*
X2187Y32239D01*
X2487Y32539D02*
X2687D01*
X2787Y32439D01*
Y32139D01*
X2487D01*
X2387Y32239D01*
X2487Y32339D01*
X2787D01*
X2986Y32539D02*
Y32139D01*
Y32339D01*
X3086Y32439D01*
X3186Y32539D01*
X3286D01*
X3986Y32739D02*
Y32139D01*
X3686D01*
X3586Y32239D01*
Y32439D01*
X3686Y32539D01*
X3986D01*
X4786Y32139D02*
Y32539D01*
X4986Y32739D01*
X5186Y32539D01*
Y32139D01*
Y32439D01*
X4786D01*
X5786Y32739D02*
Y32139D01*
X5486D01*
X5386Y32239D01*
Y32439D01*
X5486Y32539D01*
X5786D01*
X6086D02*
X6285D01*
X6385Y32439D01*
Y32139D01*
X6086D01*
X5986Y32239D01*
X6086Y32339D01*
X6385D01*
X6585Y31939D02*
Y32539D01*
X6885D01*
X6985Y32439D01*
Y32239D01*
X6885Y32139D01*
X6585D01*
X7285Y32639D02*
Y32539D01*
X7185D01*
X7385D01*
X7285D01*
Y32239D01*
X7385Y32139D01*
X7985D02*
X7785D01*
X7685Y32239D01*
Y32439D01*
X7785Y32539D01*
X7985D01*
X8085Y32439D01*
Y32339D01*
X7685D01*
X8285Y32539D02*
Y32139D01*
Y32339D01*
X8385Y32439D01*
X8485Y32539D01*
X8585D01*
X6300Y1900D02*
Y1300D01*
X6700D01*
X6900D02*
X7100D01*
X7000D01*
Y1900D01*
X6900Y1800D01*
X6950Y2350D02*
X6850Y2450D01*
X6650D01*
X6550Y2350D01*
Y1950D01*
X6650Y1850D01*
X6850D01*
X6950Y1950D01*
X7550Y1850D02*
X7150D01*
X7550Y2250D01*
Y2350D01*
X7450Y2450D01*
X7250D01*
X7150Y2350D01*
X7800Y5600D02*
X7700Y5500D01*
Y5300D01*
X7800Y5200D01*
X7900D01*
X8000Y5300D01*
Y5500D01*
X8100Y5600D01*
X8200D01*
X8300Y5500D01*
Y5300D01*
X8200Y5200D01*
X7700Y5800D02*
X8300D01*
X8100Y6000D01*
X8300Y6200D01*
X7700D01*
X8300Y6400D02*
Y6600D01*
Y6500D01*
X7700D01*
X7800Y6400D01*
X3900Y34450D02*
X3700D01*
X3800D01*
Y33950D01*
X3700Y33850D01*
X3600D01*
X3500Y33950D01*
X4100Y33850D02*
X4300D01*
X4200D01*
Y34450D01*
X4100Y34350D01*
X3600Y10850D02*
Y10350D01*
X3700Y10250D01*
X3900D01*
X4000Y10350D01*
Y10850D01*
X4200Y10250D02*
X4400D01*
X4300D01*
Y10850D01*
X4200Y10750D01*
X4050Y17170D02*
Y17770D01*
X4350D01*
X4450Y17670D01*
Y17470D01*
X4350Y17370D01*
X4050D01*
X4250D02*
X4450Y17170D01*
X4650Y17670D02*
X4750Y17770D01*
X4950D01*
X5050Y17670D01*
Y17570D01*
X4950Y17470D01*
X4850D01*
X4950D01*
X5050Y17370D01*
Y17270D01*
X4950Y17170D01*
X4750D01*
X4650Y17270D01*
X5210Y17130D02*
Y17730D01*
X5510D01*
X5610Y17630D01*
Y17430D01*
X5510Y17330D01*
X5210D01*
X5410D02*
X5610Y17130D01*
X5810D02*
X6010D01*
X5910D01*
Y17730D01*
X5810Y17630D01*
X4300Y19844D02*
X4500D01*
X4400D01*
Y20344D01*
X4500Y20444D01*
X4600D01*
X4700Y20344D01*
X3700Y20444D02*
X4100D01*
X3700Y20044D01*
Y19944D01*
X3800Y19844D01*
X4000D01*
X4100Y19944D01*
X3450Y1850D02*
X3050D01*
Y1250D01*
X3450D01*
X3050Y1550D02*
X3250D01*
X3650Y1250D02*
X3850D01*
X3750D01*
Y1850D01*
X3650Y1750D01*
X2767Y17100D02*
X2667Y17200D01*
X2467D01*
X2367Y17100D01*
Y16700D01*
X2467Y16600D01*
X2667D01*
X2767Y16700D01*
X2967Y16600D02*
X3167D01*
X3067D01*
Y17200D01*
X2967Y17100D01*
D15*
X7705Y11383D02*
X7233D01*
X7469Y11619D02*
Y11147D01*
X7587Y11501D02*
X7351Y11265D01*
Y11501D02*
X7587Y11265D01*
M02*
