G04*
G04 #@! TF.GenerationSoftware,Altium Limited,Altium Designer,25.2.1 (25)*
G04*
G04 Layer_Color=16711935*
%FSLAX24Y24*%
%MOIN*%
G70*
G04*
G04 #@! TF.SameCoordinates,7B2066EB-CBC2-4D7E-9A59-9876444C2551*
G04*
G04*
G04 #@! TF.FilePolarity,Positive*
G04*
G01*
G75*
%ADD14C,0.0100*%
D14*
X8815Y165D02*
G03*
X8950Y491I-327J327D01*
G01*
X8538Y50D02*
G03*
X8815Y165I0J391D01*
G01*
X8950Y9717D02*
G03*
X8750Y10200I-683J0D01*
G01*
D02*
G03*
X8388Y10350I-362J-362D01*
G01*
X396Y404D02*
G03*
X1250Y50I854J854D01*
G01*
X39Y1261D02*
G03*
X393Y407I1207J0D01*
G01*
X-246Y36083D02*
G03*
X-600Y35229I854J-854D01*
G01*
X8546Y29896D02*
G03*
X8900Y30750I-854J854D01*
G01*
X8443Y29793D02*
G03*
X8089Y28939I854J-854D01*
G01*
X39Y29165D02*
G03*
X-261Y29889I-1024J0D01*
G01*
X-600Y30707D02*
G03*
X-261Y29889I1157J0D01*
G01*
X8950Y491D02*
Y804D01*
Y9617D02*
Y9717D01*
X8089Y10350D02*
X8388D01*
X8950Y804D02*
Y9617D01*
X8350Y50D02*
X8538D01*
X1250D02*
X8350D01*
X393Y407D02*
X396Y404D01*
X39Y1261D02*
Y7689D01*
X8089Y10350D02*
X8089Y28939D01*
X-589Y35740D02*
X1061Y37390D01*
X-589Y31540D02*
X8911Y31540D01*
Y37390D01*
X-589Y31540D02*
Y35740D01*
X1061Y37390D02*
X8911D01*
X8900Y30750D02*
Y37379D01*
X-246Y36083D02*
X1050Y37379D01*
X-600Y30707D02*
Y35229D01*
X1050Y37379D02*
X8900D01*
X8443Y29793D02*
X8546Y29896D01*
X39Y7689D02*
Y29165D01*
M02*
