G04*
G04 #@! TF.GenerationSoftware,Altium Limited,Altium Designer,25.2.1 (25)*
G04*
G04 Layer_Color=32768*
%FSLAX24Y24*%
%MOIN*%
G70*
G04*
G04 #@! TF.SameCoordinates,7B2066EB-CBC2-4D7E-9A59-9876444C2551*
G04*
G04*
G04 #@! TF.FilePolarity,Positive*
G04*
G01*
G75*
%ADD12C,0.0060*%
%ADD54C,0.0020*%
G36*
X3506Y13476D02*
X4000Y13970D01*
X4494Y13476D01*
X4929Y13911D01*
X7561Y11279D01*
X7126Y10844D01*
X7620Y10350D01*
X7126Y9856D01*
X7561Y9421D01*
X4929Y6789D01*
X4494Y7224D01*
X4000Y6730D01*
X3506Y7224D01*
X3071Y6789D01*
X439Y9421D01*
X874Y9856D01*
X380Y10350D01*
X874Y10844D01*
X439Y11279D01*
X3071Y13911D01*
X3506Y13476D01*
D02*
G37*
G36*
X5965Y16800D02*
Y14820D01*
X5135D01*
Y16800D01*
X5965D01*
D02*
G37*
G36*
X4815Y16840D02*
Y14860D01*
X3985D01*
Y16840D01*
X4815D01*
D02*
G37*
D12*
Y14860D02*
Y16840D01*
X3985D02*
X4815D01*
X3985Y14860D02*
Y16840D01*
Y14860D02*
X4815D01*
X3506Y13476D02*
X4000Y13970D01*
X3071Y13911D02*
X3506Y13476D01*
X439Y11279D02*
X3071Y13911D01*
X439Y11279D02*
X874Y10844D01*
X380Y10350D02*
X874Y10844D01*
X380Y10350D02*
X874Y9856D01*
X439Y9421D02*
X874Y9856D01*
X439Y9421D02*
X3071Y6789D01*
X3506Y7224D01*
X4000Y6730D01*
X4494Y7224D01*
X4929Y6789D01*
X7561Y9421D01*
X7126Y9856D02*
X7561Y9421D01*
X7126Y9856D02*
X7620Y10350D01*
X7126Y10844D02*
X7620Y10350D01*
X7126Y10844D02*
X7561Y11279D01*
X4929Y13911D02*
X7561Y11279D01*
X4494Y13476D02*
X4929Y13911D01*
X4000Y13970D02*
X4494Y13476D01*
X5135Y14820D02*
X5965D01*
X5135D02*
Y16800D01*
X5965D01*
Y14820D02*
Y16800D01*
D54*
X7061Y1258D02*
Y1742D01*
X6301Y1258D02*
Y1742D01*
X7061D01*
X6301Y1258D02*
X7061D01*
X6608Y17844D02*
Y22943D01*
X1392D02*
X6608D01*
X1392Y17844D02*
Y22943D01*
Y17844D02*
X6608D01*
X3391Y15972D02*
Y17744D01*
X2209D02*
X3391D01*
X2209Y15972D02*
X3391D01*
X2209D02*
Y17744D01*
X252Y30098D02*
X7748D01*
X252Y10102D02*
Y30098D01*
Y10102D02*
X7748D01*
Y30098D01*
X69Y6412D02*
X6172D01*
X69Y310D02*
X6172D01*
Y6412D01*
X69Y310D02*
Y6412D01*
M02*
