G04*
G04 #@! TF.GenerationSoftware,Altium Limited,Altium Designer,25.2.1 (25)*
G04*
G04 Layer_Physical_Order=2*
G04 Layer_Color=16711680*
%FSLAX24Y24*%
%MOIN*%
G70*
G04*
G04 #@! TF.SameCoordinates,7B2066EB-CBC2-4D7E-9A59-9876444C2551*
G04*
G04*
G04 #@! TF.FilePolarity,Positive*
G04*
G01*
G75*
%ADD14C,0.0100*%
%ADD44C,0.0354*%
%ADD49C,0.0453*%
%ADD50C,0.0602*%
%ADD51R,0.0602X0.0602*%
%ADD52C,0.0500*%
G36*
X8750Y37150D02*
X8700Y37100D01*
Y30250D01*
X8000Y29350D01*
X8001Y28794D01*
X7902Y28752D01*
X7772Y28882D01*
X7677D01*
Y28532D01*
Y28182D01*
X7772D01*
X7903Y28312D01*
X8003Y28271D01*
X8005Y27531D01*
X7905Y27499D01*
X7722Y27682D01*
X7627D01*
Y27332D01*
X7577D01*
Y27282D01*
X7227D01*
Y27187D01*
X7190Y27097D01*
X6637D01*
X6522Y27050D01*
X3485Y24013D01*
X3438Y23898D01*
Y23783D01*
X3250Y23595D01*
Y23305D01*
X3455Y23100D01*
X3745D01*
X3950Y23305D01*
Y23595D01*
X3762Y23783D01*
Y23831D01*
X6506Y26575D01*
X6599Y26537D01*
Y26312D01*
X5974Y25688D01*
X5927Y25573D01*
Y21249D01*
X5834Y21211D01*
X5745Y21300D01*
X5480D01*
X4915Y21865D01*
X4800Y21912D01*
X3533D01*
X3345Y22100D01*
X3055D01*
X2850Y21895D01*
Y21605D01*
X3055Y21400D01*
X3345D01*
X3533Y21588D01*
X4733D01*
X4940Y21381D01*
X4898Y21281D01*
X4655D01*
X4450Y21076D01*
Y20912D01*
X1289D01*
X1183Y20868D01*
X1166Y20885D01*
X834D01*
X827Y20878D01*
X727Y20920D01*
Y20932D01*
X427D01*
Y20632D01*
X522D01*
X599Y20567D01*
Y20318D01*
X834Y20083D01*
X1166D01*
X1308Y20225D01*
X1405Y20200D01*
X1605Y20000D01*
X1870D01*
X2638Y19233D01*
Y17649D01*
X2474Y17485D01*
Y17215D01*
X2665Y17024D01*
X2935D01*
X3126Y17215D01*
Y17485D01*
X2962Y17649D01*
Y18271D01*
X3055Y18309D01*
X3132Y18232D01*
X3227D01*
Y18582D01*
Y18932D01*
X3132D01*
X3055Y18854D01*
X2962Y18893D01*
Y19300D01*
X2915Y19415D01*
X2737Y19593D01*
X2775Y19685D01*
X4794D01*
X4835Y19585D01*
X4727Y19477D01*
Y19382D01*
X5427D01*
Y19477D01*
X5319Y19585D01*
X5360Y19685D01*
X5927D01*
Y19306D01*
X4978Y18358D01*
X4886Y18396D01*
Y18901D01*
X4909Y18942D01*
X4971Y18982D01*
X5027D01*
Y19282D01*
X4727D01*
Y19187D01*
X4779Y19135D01*
X4737Y19035D01*
X3793D01*
X3717Y19004D01*
X3685Y18927D01*
Y18810D01*
X3585Y18769D01*
X3422Y18932D01*
X3327D01*
Y18582D01*
Y18232D01*
X3422D01*
X3585Y18395D01*
X3685Y18353D01*
Y18140D01*
X3717Y18063D01*
X3793Y18032D01*
X4521D01*
X4560Y17939D01*
X4420Y17800D01*
X4255D01*
X4050Y17595D01*
Y17305D01*
X4255Y17100D01*
X4545D01*
X4750Y17305D01*
Y17595D01*
X4712Y17633D01*
X6204Y19124D01*
X6251Y19239D01*
Y25506D01*
X6828Y26083D01*
X7254D01*
X7277Y26027D01*
Y25905D01*
X7185Y25867D01*
X7166Y25885D01*
X6834D01*
X6599Y25650D01*
Y25318D01*
X6602Y25315D01*
X6434Y25147D01*
X6386Y25033D01*
Y19068D01*
X5435Y18117D01*
X5388Y18002D01*
Y17783D01*
X5200Y17595D01*
Y17305D01*
X5405Y17100D01*
X5695D01*
X5900Y17305D01*
Y17595D01*
X5712Y17783D01*
Y17935D01*
X6664Y18886D01*
X6711Y19001D01*
Y19075D01*
X6804Y19113D01*
X6834Y19083D01*
X7166D01*
X7401Y19318D01*
Y19650D01*
X7166Y19885D01*
X6834D01*
X6804Y19855D01*
X6711Y19893D01*
Y20075D01*
X6804Y20113D01*
X6834Y20083D01*
X7166D01*
X7401Y20318D01*
Y20572D01*
X7455Y20650D01*
X7501Y20650D01*
X7550D01*
Y21000D01*
Y21350D01*
X7501D01*
X7455Y21350D01*
X7401Y21428D01*
Y21650D01*
X7166Y21885D01*
X6834D01*
X6804Y21855D01*
X6711Y21893D01*
Y22075D01*
X6804Y22113D01*
X6834Y22083D01*
X7166D01*
X7401Y22318D01*
Y22562D01*
X7501Y22604D01*
X7515Y22590D01*
X7610D01*
Y22940D01*
X7710D01*
Y22590D01*
X7805D01*
X7917Y22702D01*
X8017Y22661D01*
X8021Y21216D01*
X7921Y21174D01*
X7745Y21350D01*
X7650D01*
Y21000D01*
Y20650D01*
X7745D01*
X7922Y20827D01*
X8022Y20787D01*
X8048Y10373D01*
X7948Y10331D01*
X7162Y11117D01*
Y12083D01*
X7166D01*
X7401Y12318D01*
Y12650D01*
X7166Y12885D01*
X6834D01*
X6599Y12650D01*
Y12318D01*
X6834Y12083D01*
X6838D01*
Y11050D01*
X6885Y10935D01*
X7888Y9933D01*
Y9933D01*
X7700Y9745D01*
Y9455D01*
X7905Y9250D01*
X8195D01*
X8400Y9455D01*
Y9745D01*
X8212Y9933D01*
Y10000D01*
X8165Y10115D01*
X8149Y10131D01*
X8209Y10212D01*
X8750Y9917D01*
X8899Y371D01*
X8829Y300D01*
X7836D01*
X7795Y400D01*
X7950Y555D01*
Y650D01*
X7250D01*
Y555D01*
X7405Y400D01*
X7364Y300D01*
X6245D01*
X6185Y390D01*
X6202Y473D01*
X6297Y508D01*
X6405Y400D01*
X6500D01*
Y750D01*
Y1100D01*
X6405D01*
X6281Y976D01*
X6181Y1018D01*
Y6314D01*
X6150Y6390D01*
Y6426D01*
X100D01*
Y7564D01*
X200Y7605D01*
X305Y7500D01*
X400D01*
Y7850D01*
Y8200D01*
X305D01*
X192Y8087D01*
X100Y8126D01*
Y8374D01*
X192Y8413D01*
X305Y8300D01*
X400D01*
Y8650D01*
Y9000D01*
X305D01*
X192Y8887D01*
X100Y8926D01*
Y9683D01*
X192Y9721D01*
X282Y9632D01*
X377D01*
Y9982D01*
Y10332D01*
X282D01*
X192Y10242D01*
X100Y10280D01*
Y10783D01*
X192Y10821D01*
X282Y10732D01*
X377D01*
Y11082D01*
Y11432D01*
X282D01*
X192Y11342D01*
X100Y11380D01*
Y12633D01*
X192Y12671D01*
X232Y12632D01*
X327D01*
Y12982D01*
Y13332D01*
X232D01*
X192Y13292D01*
X100Y13330D01*
Y14633D01*
X192Y14671D01*
X232Y14632D01*
X327D01*
Y14982D01*
Y15332D01*
X232D01*
X192Y15292D01*
X100Y15330D01*
Y16683D01*
X192Y16721D01*
X232Y16682D01*
X327D01*
Y17032D01*
Y17382D01*
X232D01*
X192Y17342D01*
X100Y17380D01*
Y18683D01*
X192Y18721D01*
X232Y18682D01*
X327D01*
Y19032D01*
Y19382D01*
X232D01*
X192Y19342D01*
X100Y19380D01*
Y20633D01*
X192Y20671D01*
X232Y20632D01*
X327D01*
Y20982D01*
Y21332D01*
X232D01*
X192Y21292D01*
X100Y21330D01*
Y22633D01*
X192Y22671D01*
X232Y22632D01*
X327D01*
Y22982D01*
Y23332D01*
X232D01*
X192Y23292D01*
X100Y23330D01*
Y24633D01*
X192Y24671D01*
X232Y24632D01*
X327D01*
Y24982D01*
Y25332D01*
X232D01*
X192Y25292D01*
X100Y25330D01*
Y26933D01*
X192Y26971D01*
X282Y26882D01*
X377D01*
Y27232D01*
Y27582D01*
X282D01*
X192Y27492D01*
X100Y27530D01*
Y29800D01*
X11Y29889D01*
X49Y29982D01*
X122D01*
X327Y30187D01*
Y30282D01*
X-23D01*
Y30332D01*
X-73D01*
Y30682D01*
X-168D01*
X-373Y30477D01*
Y30404D01*
X-465Y30365D01*
X-550Y30450D01*
Y31122D01*
X-450Y31164D01*
X-318Y31032D01*
X-223D01*
Y31382D01*
Y31732D01*
X-318D01*
X-450Y31600D01*
X-550Y31641D01*
Y32883D01*
X-458Y32921D01*
X-368Y32832D01*
X-273D01*
Y33182D01*
Y33532D01*
X-368D01*
X-458Y33442D01*
X-550Y33480D01*
Y33883D01*
X-458Y33921D01*
X-368Y33832D01*
X-273D01*
Y34182D01*
Y34532D01*
X-368D01*
X-458Y34442D01*
X-550Y34480D01*
Y35400D01*
X-450Y35650D01*
X1000Y37100D01*
Y37250D01*
X8709D01*
X8750Y37150D01*
D02*
G37*
G36*
X7677Y25532D02*
X7772D01*
X7772Y25532D01*
X7865Y25494D01*
Y25111D01*
X7772Y25073D01*
X7745Y25100D01*
X7650D01*
Y24750D01*
Y24400D01*
X7745D01*
X7772Y24427D01*
X7865Y24389D01*
Y23940D01*
X7494Y23569D01*
X7401Y23607D01*
Y23650D01*
X7166Y23885D01*
X7050D01*
Y23484D01*
X6950D01*
Y23885D01*
X6834D01*
X6804Y23855D01*
X6711Y23893D01*
Y24075D01*
X6804Y24113D01*
X6834Y24083D01*
X7166D01*
X7401Y24318D01*
Y24378D01*
X7455Y24400D01*
X7550D01*
Y24750D01*
Y25100D01*
X7455D01*
X7250Y24895D01*
X7184Y24868D01*
X7166Y24885D01*
X6834D01*
X6738Y24931D01*
X6731Y24985D01*
X6831Y25085D01*
X6834Y25083D01*
X7166D01*
X7401Y25318D01*
Y25498D01*
X7482Y25532D01*
X7577D01*
Y25882D01*
X7677D01*
Y25532D01*
D02*
G37*
%LPC*%
G36*
X2072Y35282D02*
X1977D01*
Y34982D01*
X2277D01*
Y35077D01*
X2072Y35282D01*
D02*
G37*
G36*
X1877D02*
X1782D01*
X1577Y35077D01*
Y34982D01*
X1877D01*
Y35282D01*
D02*
G37*
G36*
X2277Y34882D02*
X1977D01*
Y34582D01*
X2072D01*
X2277Y34787D01*
Y34882D01*
D02*
G37*
G36*
X1877D02*
X1577D01*
Y34787D01*
X1782Y34582D01*
X1877D01*
Y34882D01*
D02*
G37*
G36*
X6445Y34650D02*
X6350D01*
Y34350D01*
X6650D01*
Y34445D01*
X6445Y34650D01*
D02*
G37*
G36*
X6250D02*
X6155D01*
X5950Y34445D01*
Y34350D01*
X6250D01*
Y34650D01*
D02*
G37*
G36*
X-78Y34532D02*
X-173D01*
Y34232D01*
X127D01*
Y34327D01*
X-78Y34532D01*
D02*
G37*
G36*
X3545Y34400D02*
X3450D01*
Y34100D01*
X3750D01*
Y34195D01*
X3545Y34400D01*
D02*
G37*
G36*
X3350D02*
X3255D01*
X3050Y34195D01*
Y34100D01*
X3350D01*
Y34400D01*
D02*
G37*
G36*
X6650Y34250D02*
X6350D01*
Y33950D01*
X6445D01*
X6650Y34155D01*
Y34250D01*
D02*
G37*
G36*
X6250D02*
X5950D01*
Y34155D01*
X6155Y33950D01*
X6250D01*
Y34250D01*
D02*
G37*
G36*
X127Y34132D02*
X-173D01*
Y33832D01*
X-78D01*
X127Y34037D01*
Y34132D01*
D02*
G37*
G36*
X3750Y34000D02*
X3450D01*
Y33700D01*
X3545D01*
X3750Y33905D01*
Y34000D01*
D02*
G37*
G36*
X3350D02*
X3050D01*
Y33905D01*
X3255Y33700D01*
X3350D01*
Y34000D01*
D02*
G37*
G36*
X2022Y33682D02*
X1927D01*
Y33382D01*
X2227D01*
Y33477D01*
X2022Y33682D01*
D02*
G37*
G36*
X1827D02*
X1732D01*
X1527Y33477D01*
Y33382D01*
X1827D01*
Y33682D01*
D02*
G37*
G36*
X7172Y33582D02*
X7077D01*
Y33282D01*
X7377D01*
Y33377D01*
X7172Y33582D01*
D02*
G37*
G36*
X6977D02*
X6882D01*
X6677Y33377D01*
Y33282D01*
X6977D01*
Y33582D01*
D02*
G37*
G36*
X-78Y33532D02*
X-173D01*
Y33232D01*
X127D01*
Y33327D01*
X-78Y33532D01*
D02*
G37*
G36*
X2227Y33282D02*
X1927D01*
Y32982D01*
X2022D01*
X2227Y33187D01*
Y33282D01*
D02*
G37*
G36*
X1827D02*
X1527D01*
Y33187D01*
X1732Y32982D01*
X1827D01*
Y33282D01*
D02*
G37*
G36*
X7377Y33182D02*
X7077D01*
Y32882D01*
X7172D01*
X7377Y33087D01*
Y33182D01*
D02*
G37*
G36*
X6977D02*
X6677D01*
Y33087D01*
X6882Y32882D01*
X6977D01*
Y33182D01*
D02*
G37*
G36*
X5822D02*
X5727D01*
Y32882D01*
X6027D01*
Y32977D01*
X5822Y33182D01*
D02*
G37*
G36*
X5627D02*
X5532D01*
X5327Y32977D01*
Y32882D01*
X5627D01*
Y33182D01*
D02*
G37*
G36*
X127Y33132D02*
X-173D01*
Y32832D01*
X-78D01*
X127Y33037D01*
Y33132D01*
D02*
G37*
G36*
X6027Y32782D02*
X5727D01*
Y32482D01*
X5822D01*
X6027Y32687D01*
Y32782D01*
D02*
G37*
G36*
X5627D02*
X5327D01*
Y32687D01*
X5532Y32482D01*
X5627D01*
Y32782D01*
D02*
G37*
G36*
X7172Y32382D02*
X7077D01*
Y32082D01*
X7377D01*
Y32177D01*
X7172Y32382D01*
D02*
G37*
G36*
X6977D02*
X6882D01*
X6677Y32177D01*
Y32082D01*
X6977D01*
Y32382D01*
D02*
G37*
G36*
X3995Y32150D02*
X3900D01*
Y31850D01*
X4200D01*
Y31945D01*
X3995Y32150D01*
D02*
G37*
G36*
X3800D02*
X3705D01*
X3500Y31945D01*
Y31850D01*
X3800D01*
Y32150D01*
D02*
G37*
G36*
X1095Y32050D02*
X1000D01*
Y31750D01*
X1300D01*
Y31845D01*
X1095Y32050D01*
D02*
G37*
G36*
X900D02*
X805D01*
X600Y31845D01*
Y31750D01*
X900D01*
Y32050D01*
D02*
G37*
G36*
X7377Y31982D02*
X7077D01*
Y31682D01*
X7172D01*
X7377Y31887D01*
Y31982D01*
D02*
G37*
G36*
X6977D02*
X6677D01*
Y31887D01*
X6882Y31682D01*
X6977D01*
Y31982D01*
D02*
G37*
G36*
X4200Y31750D02*
X3900D01*
Y31450D01*
X3995D01*
X4200Y31655D01*
Y31750D01*
D02*
G37*
G36*
X3800D02*
X3500D01*
Y31655D01*
X3705Y31450D01*
X3800D01*
Y31750D01*
D02*
G37*
G36*
X-28Y31732D02*
X-123D01*
Y31432D01*
X177D01*
Y31527D01*
X-28Y31732D01*
D02*
G37*
G36*
X1300Y31650D02*
X1000D01*
Y31350D01*
X1095D01*
X1300Y31555D01*
Y31650D01*
D02*
G37*
G36*
X900D02*
X600D01*
Y31555D01*
X805Y31350D01*
X900D01*
Y31650D01*
D02*
G37*
G36*
X5822Y31532D02*
X5727D01*
Y31232D01*
X6027D01*
Y31327D01*
X5822Y31532D01*
D02*
G37*
G36*
X5627D02*
X5532D01*
X5327Y31327D01*
Y31232D01*
X5627D01*
Y31532D01*
D02*
G37*
G36*
X177Y31332D02*
X-123D01*
Y31032D01*
X-28D01*
X177Y31237D01*
Y31332D01*
D02*
G37*
G36*
X6027Y31132D02*
X5727D01*
Y30832D01*
X5822D01*
X6027Y31037D01*
Y31132D01*
D02*
G37*
G36*
X5627D02*
X5327D01*
Y31037D01*
X5532Y30832D01*
X5627D01*
Y31132D01*
D02*
G37*
G36*
X2045Y31100D02*
X1950D01*
Y30800D01*
X2250D01*
Y30895D01*
X2045Y31100D01*
D02*
G37*
G36*
X1850D02*
X1755D01*
X1550Y30895D01*
Y30800D01*
X1850D01*
Y31100D01*
D02*
G37*
G36*
X7072Y30782D02*
X6977D01*
Y30482D01*
X7277D01*
Y30577D01*
X7072Y30782D01*
D02*
G37*
G36*
X6877D02*
X6782D01*
X6577Y30577D01*
Y30482D01*
X6877D01*
Y30782D01*
D02*
G37*
G36*
X3145Y30750D02*
X3050D01*
Y30450D01*
X3350D01*
Y30545D01*
X3145Y30750D01*
D02*
G37*
G36*
X2950D02*
X2855D01*
X2650Y30545D01*
Y30450D01*
X2950D01*
Y30750D01*
D02*
G37*
G36*
X2250Y30700D02*
X1950D01*
Y30400D01*
X2045D01*
X2250Y30605D01*
Y30700D01*
D02*
G37*
G36*
X1850D02*
X1550D01*
Y30605D01*
X1755Y30400D01*
X1850D01*
Y30700D01*
D02*
G37*
G36*
X122Y30682D02*
X27D01*
Y30382D01*
X327D01*
Y30477D01*
X122Y30682D01*
D02*
G37*
G36*
X7277Y30382D02*
X6977D01*
Y30082D01*
X7072D01*
X7277Y30287D01*
Y30382D01*
D02*
G37*
G36*
X6877D02*
X6577D01*
Y30287D01*
X6782Y30082D01*
X6877D01*
Y30382D01*
D02*
G37*
G36*
X3350Y30350D02*
X3050D01*
Y30050D01*
X3145D01*
X3350Y30255D01*
Y30350D01*
D02*
G37*
G36*
X2950D02*
X2650D01*
Y30255D01*
X2855Y30050D01*
X2950D01*
Y30350D01*
D02*
G37*
G36*
X4122Y29932D02*
X4027D01*
Y29632D01*
X4327D01*
Y29727D01*
X4122Y29932D01*
D02*
G37*
G36*
X3927D02*
X3832D01*
X3627Y29727D01*
Y29632D01*
X3927D01*
Y29932D01*
D02*
G37*
G36*
X5872Y29732D02*
X5777D01*
Y29432D01*
X6077D01*
Y29527D01*
X5872Y29732D01*
D02*
G37*
G36*
X5677D02*
X5582D01*
X5377Y29527D01*
Y29432D01*
X5677D01*
Y29732D01*
D02*
G37*
G36*
X4327Y29532D02*
X4027D01*
Y29232D01*
X4122D01*
X4327Y29437D01*
Y29532D01*
D02*
G37*
G36*
X3927D02*
X3627D01*
Y29437D01*
X3832Y29232D01*
X3927D01*
Y29532D01*
D02*
G37*
G36*
X1245Y29500D02*
X1150D01*
Y29200D01*
X1450D01*
Y29295D01*
X1245Y29500D01*
D02*
G37*
G36*
X1050D02*
X955D01*
X750Y29295D01*
Y29200D01*
X1050D01*
Y29500D01*
D02*
G37*
G36*
X6077Y29332D02*
X5777D01*
Y29032D01*
X5872D01*
X6077Y29237D01*
Y29332D01*
D02*
G37*
G36*
X5677D02*
X5377D01*
Y29237D01*
X5582Y29032D01*
X5677D01*
Y29332D01*
D02*
G37*
G36*
X3195Y29200D02*
X3100D01*
Y28900D01*
X3400D01*
Y28995D01*
X3195Y29200D01*
D02*
G37*
G36*
X3000D02*
X2905D01*
X2700Y28995D01*
Y28900D01*
X3000D01*
Y29200D01*
D02*
G37*
G36*
X1450Y29100D02*
X1150D01*
Y28800D01*
X1245D01*
X1450Y29005D01*
Y29100D01*
D02*
G37*
G36*
X1050D02*
X750D01*
Y29005D01*
X955Y28800D01*
X1050D01*
Y29100D01*
D02*
G37*
G36*
X7577Y28882D02*
X7482D01*
X7277Y28677D01*
Y28582D01*
X7577D01*
Y28882D01*
D02*
G37*
G36*
X3400Y28800D02*
X3100D01*
Y28500D01*
X3195D01*
X3400Y28705D01*
Y28800D01*
D02*
G37*
G36*
X3000D02*
X2700D01*
Y28705D01*
X2905Y28500D01*
X3000D01*
Y28800D01*
D02*
G37*
G36*
X7577Y28482D02*
X7277D01*
Y28387D01*
X7482Y28182D01*
X7577D01*
Y28482D01*
D02*
G37*
G36*
X1995Y28350D02*
X1900D01*
Y28050D01*
X2200D01*
Y28145D01*
X1995Y28350D01*
D02*
G37*
G36*
X1800D02*
X1705D01*
X1500Y28145D01*
Y28050D01*
X1800D01*
Y28350D01*
D02*
G37*
G36*
X2200Y27950D02*
X1900D01*
Y27650D01*
X1995D01*
X2200Y27855D01*
Y27950D01*
D02*
G37*
G36*
X1800D02*
X1500D01*
Y27855D01*
X1705Y27650D01*
X1800D01*
Y27950D01*
D02*
G37*
G36*
X4172Y27832D02*
X4077D01*
Y27532D01*
X4377D01*
Y27627D01*
X4172Y27832D01*
D02*
G37*
G36*
X3977D02*
X3882D01*
X3677Y27627D01*
Y27532D01*
X3977D01*
Y27832D01*
D02*
G37*
G36*
X7527Y27682D02*
X7432D01*
X7227Y27477D01*
Y27382D01*
X7527D01*
Y27682D01*
D02*
G37*
G36*
X572Y27582D02*
X477D01*
Y27282D01*
X777D01*
Y27377D01*
X572Y27582D01*
D02*
G37*
G36*
X4377Y27432D02*
X4077D01*
Y27132D01*
X4172D01*
X4377Y27337D01*
Y27432D01*
D02*
G37*
G36*
X3977D02*
X3677D01*
Y27337D01*
X3882Y27132D01*
X3977D01*
Y27432D01*
D02*
G37*
G36*
X3245Y27400D02*
X3150D01*
Y27100D01*
X3450D01*
Y27195D01*
X3245Y27400D01*
D02*
G37*
G36*
X3050D02*
X2955D01*
X2750Y27195D01*
Y27100D01*
X3050D01*
Y27400D01*
D02*
G37*
G36*
X3450Y27000D02*
X3150D01*
Y26700D01*
X3245D01*
X3450Y26905D01*
Y27000D01*
D02*
G37*
G36*
X3050D02*
X2750D01*
Y26905D01*
X2955Y26700D01*
X3050D01*
Y27000D01*
D02*
G37*
G36*
X2172Y26432D02*
X2077D01*
Y26132D01*
X2377D01*
Y26227D01*
X2172Y26432D01*
D02*
G37*
G36*
X1977D02*
X1882D01*
X1677Y26227D01*
Y26132D01*
X1977D01*
Y26432D01*
D02*
G37*
G36*
X777Y27182D02*
X477D01*
Y26882D01*
X499D01*
X572Y26882D01*
X599Y26793D01*
Y26083D01*
X1401D01*
Y26885D01*
X717D01*
X675Y26985D01*
X777Y27087D01*
Y27182D01*
D02*
G37*
G36*
X4172Y26182D02*
X4077D01*
Y25882D01*
X4377D01*
Y25977D01*
X4172Y26182D01*
D02*
G37*
G36*
X3977D02*
X3882D01*
X3677Y25977D01*
Y25882D01*
X3977D01*
Y26182D01*
D02*
G37*
G36*
X2377Y26032D02*
X2077D01*
Y25732D01*
X2172D01*
X2377Y25937D01*
Y26032D01*
D02*
G37*
G36*
X1977D02*
X1677D01*
Y25937D01*
X1882Y25732D01*
X1977D01*
Y26032D01*
D02*
G37*
G36*
X4377Y25782D02*
X4077D01*
Y25482D01*
X4172D01*
X4377Y25687D01*
Y25782D01*
D02*
G37*
G36*
X3977D02*
X3677D01*
Y25687D01*
X3882Y25482D01*
X3977D01*
Y25782D01*
D02*
G37*
G36*
X1166Y25885D02*
X834D01*
X599Y25650D01*
Y25396D01*
X522Y25332D01*
X499Y25332D01*
X427D01*
Y25032D01*
X727D01*
Y25048D01*
X827Y25090D01*
X834Y25083D01*
X1166D01*
X1401Y25318D01*
Y25650D01*
X1166Y25885D01*
D02*
G37*
G36*
X3172Y24932D02*
X3077D01*
Y24632D01*
X3377D01*
Y24727D01*
X3172Y24932D01*
D02*
G37*
G36*
X2977D02*
X2882D01*
X2677Y24727D01*
Y24632D01*
X2977D01*
Y24932D01*
D02*
G37*
G36*
X2172D02*
X2077D01*
Y24632D01*
X2377D01*
Y24727D01*
X2172Y24932D01*
D02*
G37*
G36*
X1977D02*
X1882D01*
X1677Y24727D01*
Y24632D01*
X1977D01*
Y24932D01*
D02*
G37*
G36*
X3377Y24532D02*
X3077D01*
Y24232D01*
X3172D01*
X3377Y24437D01*
Y24532D01*
D02*
G37*
G36*
X2977D02*
X2677D01*
Y24437D01*
X2882Y24232D01*
X2977D01*
Y24532D01*
D02*
G37*
G36*
X2377D02*
X2077D01*
Y24232D01*
X2172D01*
X2377Y24437D01*
Y24532D01*
D02*
G37*
G36*
X1977D02*
X1677D01*
Y24437D01*
X1882Y24232D01*
X1977D01*
Y24532D01*
D02*
G37*
G36*
X727Y24932D02*
X427D01*
Y24632D01*
X499D01*
X522Y24632D01*
X599Y24567D01*
Y24318D01*
X834Y24083D01*
X1166D01*
X1401Y24318D01*
Y24650D01*
X1166Y24885D01*
X834D01*
X827Y24878D01*
X727Y24920D01*
Y24932D01*
D02*
G37*
G36*
X1166Y23885D02*
X834D01*
X599Y23650D01*
Y23396D01*
X522Y23332D01*
X499Y23332D01*
X427D01*
Y23032D01*
X727D01*
Y23048D01*
X827Y23090D01*
X834Y23083D01*
X1166D01*
X1401Y23318D01*
Y23650D01*
X1166Y23885D01*
D02*
G37*
G36*
X727Y22932D02*
X427D01*
Y22632D01*
X499D01*
X522Y22632D01*
X599Y22567D01*
Y22318D01*
X834Y22083D01*
X1166D01*
X1401Y22318D01*
Y22650D01*
X1166Y22885D01*
X834D01*
X827Y22878D01*
X727Y22920D01*
Y22932D01*
D02*
G37*
G36*
X1166Y21885D02*
X834D01*
X599Y21650D01*
Y21396D01*
X522Y21332D01*
X499Y21332D01*
X427D01*
Y21032D01*
X727D01*
Y21048D01*
X827Y21090D01*
X834Y21083D01*
X1166D01*
X1401Y21318D01*
Y21650D01*
X1166Y21885D01*
D02*
G37*
G36*
Y19885D02*
X834D01*
X599Y19650D01*
Y19446D01*
X522Y19382D01*
X499Y19382D01*
X427D01*
Y19032D01*
Y18682D01*
X512D01*
X530Y18675D01*
X599Y18617D01*
Y18318D01*
X834Y18083D01*
X1166D01*
X1401Y18318D01*
Y18650D01*
X1166Y18885D01*
X834D01*
X821Y18872D01*
X727Y18920D01*
Y19048D01*
X827Y19090D01*
X834Y19083D01*
X1166D01*
X1401Y19318D01*
Y19650D01*
X1166Y19885D01*
D02*
G37*
G36*
X5427Y19282D02*
X5127D01*
Y18982D01*
X5222D01*
X5427Y19187D01*
Y19282D01*
D02*
G37*
G36*
X7166Y18885D02*
X6834D01*
X6599Y18650D01*
Y18318D01*
X6834Y18083D01*
X7166D01*
X7401Y18318D01*
Y18650D01*
X7166Y18885D01*
D02*
G37*
G36*
Y17885D02*
X6834D01*
X6599Y17650D01*
Y17318D01*
X6834Y17083D01*
X7166D01*
X7401Y17318D01*
Y17650D01*
X7166Y17885D01*
D02*
G37*
G36*
X1166D02*
X834D01*
X599Y17650D01*
Y17446D01*
X522Y17382D01*
X499Y17382D01*
X427D01*
Y17032D01*
Y16682D01*
X512D01*
X530Y16675D01*
X599Y16617D01*
Y16318D01*
X834Y16083D01*
X1166D01*
X1401Y16318D01*
Y16650D01*
X1166Y16885D01*
X834D01*
X821Y16872D01*
X727Y16920D01*
Y17048D01*
X827Y17090D01*
X834Y17083D01*
X1166D01*
X1401Y17318D01*
Y17650D01*
X1166Y17885D01*
D02*
G37*
G36*
X3795Y17350D02*
X3700D01*
Y17050D01*
X4000D01*
Y17145D01*
X3795Y17350D01*
D02*
G37*
G36*
X3600D02*
X3505D01*
X3300Y17145D01*
Y17050D01*
X3600D01*
Y17350D01*
D02*
G37*
G36*
X4000Y16950D02*
X3700D01*
Y16650D01*
X3795D01*
X4000Y16855D01*
Y16950D01*
D02*
G37*
G36*
X3600D02*
X3300D01*
Y16855D01*
X3505Y16650D01*
X3600D01*
Y16950D01*
D02*
G37*
G36*
X7166Y16885D02*
X6834D01*
X6599Y16650D01*
Y16318D01*
X6834Y16083D01*
X7166D01*
X7401Y16318D01*
Y16650D01*
X7166Y16885D01*
D02*
G37*
G36*
X2545Y16000D02*
X2450D01*
Y15700D01*
X2750D01*
Y15795D01*
X2545Y16000D01*
D02*
G37*
G36*
X2350D02*
X2255D01*
X2050Y15795D01*
Y15700D01*
X2350D01*
Y16000D01*
D02*
G37*
G36*
X2750Y15600D02*
X2450D01*
Y15300D01*
X2545D01*
X2750Y15505D01*
Y15600D01*
D02*
G37*
G36*
X2350D02*
X2050D01*
Y15505D01*
X2255Y15300D01*
X2350D01*
Y15600D01*
D02*
G37*
G36*
X7166Y15885D02*
X6834D01*
X6599Y15650D01*
Y15318D01*
X6834Y15083D01*
X7166D01*
X7401Y15318D01*
Y15650D01*
X7166Y15885D01*
D02*
G37*
G36*
X1166D02*
X834D01*
X599Y15650D01*
Y15396D01*
X522Y15332D01*
X499Y15332D01*
X427D01*
Y15032D01*
X727D01*
Y15048D01*
X827Y15090D01*
X834Y15083D01*
X1166D01*
X1401Y15318D01*
Y15650D01*
X1166Y15885D01*
D02*
G37*
G36*
X3495Y15200D02*
X3400D01*
Y14900D01*
X3700D01*
Y14995D01*
X3495Y15200D01*
D02*
G37*
G36*
X3300D02*
X3205D01*
X3000Y14995D01*
Y14900D01*
X3300D01*
Y15200D01*
D02*
G37*
G36*
X3700Y14800D02*
X3400D01*
Y14500D01*
X3495D01*
X3700Y14705D01*
Y14800D01*
D02*
G37*
G36*
X3300D02*
X3000D01*
Y14705D01*
X3205Y14500D01*
X3300D01*
Y14800D01*
D02*
G37*
G36*
X2595Y14450D02*
X2500D01*
Y14150D01*
X2800D01*
Y14245D01*
X2595Y14450D01*
D02*
G37*
G36*
X2400D02*
X2305D01*
X2100Y14245D01*
Y14150D01*
X2400D01*
Y14450D01*
D02*
G37*
G36*
X7166Y14885D02*
X6834D01*
X6599Y14650D01*
Y14318D01*
X6834Y14083D01*
X7166D01*
X7401Y14318D01*
Y14650D01*
X7166Y14885D01*
D02*
G37*
G36*
X727Y14932D02*
X427D01*
Y14632D01*
X499D01*
X522Y14632D01*
X599Y14567D01*
Y14318D01*
X834Y14083D01*
X1166D01*
X1401Y14318D01*
Y14650D01*
X1166Y14885D01*
X834D01*
X827Y14878D01*
X727Y14920D01*
Y14932D01*
D02*
G37*
G36*
X2800Y14050D02*
X2500D01*
Y13750D01*
X2595D01*
X2800Y13955D01*
Y14050D01*
D02*
G37*
G36*
X2400D02*
X2100D01*
Y13955D01*
X2305Y13750D01*
X2400D01*
Y14050D01*
D02*
G37*
G36*
X2935Y16692D02*
X2665D01*
X2474Y16501D01*
Y16231D01*
X2665Y16039D01*
X2897D01*
X5000Y13936D01*
Y13905D01*
X5205Y13700D01*
X5495D01*
X5700Y13905D01*
Y14195D01*
X5495Y14400D01*
X5205D01*
X5100Y14295D01*
X3126Y16269D01*
Y16501D01*
X2935Y16692D01*
D02*
G37*
G36*
X1995Y13600D02*
X1900D01*
Y13300D01*
X2200D01*
Y13395D01*
X1995Y13600D01*
D02*
G37*
G36*
X7166Y13885D02*
X6834D01*
X6599Y13650D01*
Y13318D01*
X6602Y13315D01*
X6135Y12849D01*
X6088Y12734D01*
Y9950D01*
X6135Y9835D01*
X7150Y8820D01*
Y8555D01*
X7355Y8350D01*
X7645D01*
X7850Y8555D01*
Y8845D01*
X7645Y9050D01*
X7380D01*
X6412Y10017D01*
Y12667D01*
X6831Y13085D01*
X6834Y13083D01*
X7166D01*
X7401Y13318D01*
Y13650D01*
X7166Y13885D01*
D02*
G37*
G36*
X4295Y12500D02*
X4200D01*
Y12200D01*
X4500D01*
Y12295D01*
X4295Y12500D01*
D02*
G37*
G36*
X4100D02*
X4005D01*
X3800Y12295D01*
Y12200D01*
X4100D01*
Y12500D01*
D02*
G37*
G36*
X727Y12932D02*
X427D01*
Y12632D01*
X499D01*
X522Y12632D01*
X599Y12567D01*
Y12318D01*
X834Y12083D01*
X1166D01*
X1401Y12318D01*
Y12650D01*
X1166Y12885D01*
X834D01*
X827Y12878D01*
X727Y12920D01*
Y12932D01*
D02*
G37*
G36*
X4500Y12100D02*
X4200D01*
Y11800D01*
X4295D01*
X4500Y12005D01*
Y12100D01*
D02*
G37*
G36*
X4100D02*
X3800D01*
Y12005D01*
X4005Y11800D01*
X4100D01*
Y12100D01*
D02*
G37*
G36*
X3395Y11750D02*
X3300D01*
Y11450D01*
X3600D01*
Y11545D01*
X3395Y11750D01*
D02*
G37*
G36*
X572Y11432D02*
X477D01*
Y11132D01*
X777D01*
Y11227D01*
X572Y11432D01*
D02*
G37*
G36*
X5645Y11350D02*
X5550D01*
Y11050D01*
X5850D01*
Y11145D01*
X5645Y11350D01*
D02*
G37*
G36*
X5450D02*
X5355D01*
X5150Y11145D01*
Y11050D01*
X5450D01*
Y11350D01*
D02*
G37*
G36*
X4395Y11250D02*
X4300D01*
Y10950D01*
X4600D01*
Y11045D01*
X4395Y11250D01*
D02*
G37*
G36*
X4200D02*
X4105D01*
X3900Y11045D01*
Y10950D01*
X4200D01*
Y11250D01*
D02*
G37*
G36*
X777Y11032D02*
X477D01*
Y10732D01*
X572D01*
X777Y10937D01*
Y11032D01*
D02*
G37*
G36*
X5850Y10950D02*
X5550D01*
Y10650D01*
X5645D01*
X5850Y10855D01*
Y10950D01*
D02*
G37*
G36*
X5450D02*
X5150D01*
Y10855D01*
X5355Y10650D01*
X5450D01*
Y10950D01*
D02*
G37*
G36*
X2495D02*
X2400D01*
Y10650D01*
X2700D01*
Y10745D01*
X2495Y10950D01*
D02*
G37*
G36*
X2300D02*
X2205D01*
X2000Y10745D01*
Y10650D01*
X2300D01*
Y10950D01*
D02*
G37*
G36*
X4600Y10850D02*
X4300D01*
Y10550D01*
X4395D01*
X4600Y10755D01*
Y10850D01*
D02*
G37*
G36*
X4200D02*
X3900D01*
Y10755D01*
X4105Y10550D01*
X4200D01*
Y10850D01*
D02*
G37*
G36*
X2700Y10550D02*
X2400D01*
Y10250D01*
X2495D01*
X2700Y10455D01*
Y10550D01*
D02*
G37*
G36*
X2300D02*
X2000D01*
Y10455D01*
X2205Y10250D01*
X2300D01*
Y10550D01*
D02*
G37*
G36*
X572Y10332D02*
X477D01*
Y10032D01*
X777D01*
Y10127D01*
X572Y10332D01*
D02*
G37*
G36*
X3495Y9950D02*
X3400D01*
Y9650D01*
X3700D01*
Y9745D01*
X3495Y9950D01*
D02*
G37*
G36*
X3300D02*
X3205D01*
X3000Y9745D01*
Y9650D01*
X3300D01*
Y9950D01*
D02*
G37*
G36*
X777Y9932D02*
X477D01*
Y9632D01*
X572D01*
X777Y9837D01*
Y9932D01*
D02*
G37*
G36*
X5295Y9900D02*
X5200D01*
Y9600D01*
X5500D01*
Y9695D01*
X5295Y9900D01*
D02*
G37*
G36*
X3700Y9550D02*
X3400D01*
Y9250D01*
X3495D01*
X3700Y9455D01*
Y9550D01*
D02*
G37*
G36*
X3300D02*
X3000D01*
Y9455D01*
X3205Y9250D01*
X3300D01*
Y9550D01*
D02*
G37*
G36*
X4245Y9200D02*
X4150D01*
Y8900D01*
X4450D01*
Y8995D01*
X4245Y9200D01*
D02*
G37*
G36*
X4050D02*
X3955D01*
X3750Y8995D01*
Y8900D01*
X4050D01*
Y9200D01*
D02*
G37*
G36*
X595Y9000D02*
X500D01*
Y8700D01*
X800D01*
Y8795D01*
X595Y9000D01*
D02*
G37*
G36*
X4450Y8800D02*
X4150D01*
Y8500D01*
X4245D01*
X4450Y8705D01*
Y8800D01*
D02*
G37*
G36*
X4050D02*
X3750D01*
Y8705D01*
X3955Y8500D01*
X4050D01*
Y8800D01*
D02*
G37*
G36*
X800Y8600D02*
X500D01*
Y8300D01*
X595D01*
X800Y8505D01*
Y8600D01*
D02*
G37*
G36*
X595Y8200D02*
X500D01*
Y7900D01*
X800D01*
Y7995D01*
X595Y8200D01*
D02*
G37*
G36*
X800Y7800D02*
X500D01*
Y7500D01*
X595D01*
X800Y7705D01*
Y7800D01*
D02*
G37*
G36*
X1166Y13885D02*
X834D01*
X599Y13650D01*
Y13396D01*
X522Y13332D01*
X499Y13332D01*
X427D01*
Y13032D01*
X727D01*
Y13048D01*
X827Y13090D01*
X834Y13083D01*
X1166D01*
X1169Y13085D01*
X2638Y11617D01*
Y11284D01*
X2685Y11170D01*
X4387Y9468D01*
X4414Y9457D01*
X5950Y7920D01*
Y7655D01*
X6155Y7450D01*
X6445D01*
X6650Y7655D01*
Y7945D01*
X6445Y8150D01*
X6180D01*
X5222Y9108D01*
X5260Y9200D01*
X5295D01*
X5500Y9405D01*
Y9500D01*
X5150D01*
Y9550D01*
X5100D01*
Y9900D01*
X5005D01*
X4800Y9695D01*
Y9660D01*
X4708Y9622D01*
X4632Y9697D01*
X4606Y9708D01*
X3356Y10958D01*
X3395Y11050D01*
X3395D01*
X3600Y11255D01*
Y11350D01*
X3250D01*
Y11400D01*
X3200D01*
Y11750D01*
X3105D01*
X3055Y11700D01*
X2943Y11730D01*
X2915Y11799D01*
X1906Y12808D01*
X1944Y12900D01*
X1995D01*
X2200Y13105D01*
Y13200D01*
X1850D01*
Y13250D01*
X1800D01*
Y13600D01*
X1705D01*
X1501Y13396D01*
X1401Y13398D01*
Y13650D01*
X1166Y13885D01*
D02*
G37*
G36*
X1295Y7400D02*
X1200D01*
Y7100D01*
X1500D01*
Y7195D01*
X1295Y7400D01*
D02*
G37*
G36*
X1100D02*
X1005D01*
X800Y7195D01*
Y7100D01*
X1100D01*
Y7400D01*
D02*
G37*
G36*
X1500Y7000D02*
X1200D01*
Y6700D01*
X1295D01*
X1500Y6905D01*
Y7000D01*
D02*
G37*
G36*
X1100D02*
X800D01*
Y6905D01*
X1005Y6700D01*
X1100D01*
Y7000D01*
D02*
G37*
G36*
X8070Y7111D02*
X7840D01*
X7678Y6949D01*
Y6719D01*
X7840Y6557D01*
X8070D01*
X8232Y6719D01*
Y6949D01*
X8070Y7111D01*
D02*
G37*
G36*
Y5143D02*
X7840D01*
X7678Y4981D01*
Y4751D01*
X7840Y4589D01*
X8070D01*
X8232Y4751D01*
Y4981D01*
X8070Y5143D01*
D02*
G37*
G36*
X8295Y3300D02*
X8200D01*
Y3000D01*
X8500D01*
Y3095D01*
X8295Y3300D01*
D02*
G37*
G36*
X8100D02*
X8005D01*
X7800Y3095D01*
Y3000D01*
X8100D01*
Y3300D01*
D02*
G37*
G36*
X7195D02*
X7100D01*
Y3000D01*
X7400D01*
Y3095D01*
X7195Y3300D01*
D02*
G37*
G36*
X7000D02*
X6905D01*
X6700Y3095D01*
Y3000D01*
X7000D01*
Y3300D01*
D02*
G37*
G36*
X8500Y2900D02*
X8200D01*
Y2600D01*
X8295D01*
X8500Y2805D01*
Y2900D01*
D02*
G37*
G36*
X8100D02*
X7800D01*
Y2805D01*
X8005Y2600D01*
X8100D01*
Y2900D01*
D02*
G37*
G36*
X7400D02*
X7100D01*
Y2600D01*
X7195D01*
X7400Y2805D01*
Y2900D01*
D02*
G37*
G36*
X7000D02*
X6700D01*
Y2805D01*
X6905Y2600D01*
X7000D01*
Y2900D01*
D02*
G37*
G36*
X8245Y1950D02*
X8150D01*
Y1650D01*
X8450D01*
Y1745D01*
X8245Y1950D01*
D02*
G37*
G36*
X8050D02*
X7955D01*
X7750Y1745D01*
Y1650D01*
X8050D01*
Y1950D01*
D02*
G37*
G36*
X8450Y1550D02*
X8150D01*
Y1250D01*
X8245D01*
X8450Y1455D01*
Y1550D01*
D02*
G37*
G36*
X8050D02*
X7750D01*
Y1455D01*
X7955Y1250D01*
X8050D01*
Y1550D01*
D02*
G37*
G36*
X6695Y1100D02*
X6600D01*
Y800D01*
X6900D01*
Y895D01*
X6695Y1100D01*
D02*
G37*
G36*
X7745Y1050D02*
X7650D01*
Y750D01*
X7950D01*
Y845D01*
X7745Y1050D01*
D02*
G37*
G36*
X7550D02*
X7455D01*
X7250Y845D01*
Y750D01*
X7550D01*
Y1050D01*
D02*
G37*
G36*
X6900Y700D02*
X6600D01*
Y400D01*
X6695D01*
X6900Y605D01*
Y700D01*
D02*
G37*
%LPD*%
D14*
X7000Y22484D02*
Y22602D01*
X7260Y22862D01*
Y23106D01*
X8027Y23873D01*
Y26271D01*
X7363Y26935D02*
X8027Y26271D01*
X6637Y26935D02*
X7363D01*
X3600Y23898D02*
X6637Y26935D01*
X3600Y23450D02*
Y23898D01*
X1000Y13484D02*
X2800Y11684D01*
Y11284D02*
Y11684D01*
Y11284D02*
X4502Y9582D01*
X4518D01*
X6300Y7800D01*
X7000Y11050D02*
Y12484D01*
Y11050D02*
X8050Y10000D01*
Y9600D02*
Y10000D01*
X6250Y12734D02*
X7000Y13484D01*
X6250Y9950D02*
Y12734D01*
Y9950D02*
X7500Y8700D01*
X4400Y17450D02*
Y17550D01*
X6089Y19239D02*
Y25573D01*
X4400Y17550D02*
X6089Y19239D01*
X5116Y14050D02*
X5350D01*
X2800Y16366D02*
X5116Y14050D01*
X1289Y20750D02*
X4541D01*
X4722Y20931D01*
X1000Y20484D02*
X1023D01*
X4722Y20931D02*
X4800D01*
X1023Y20484D02*
X1289Y20750D01*
X3200Y21750D02*
X4800D01*
X5600Y20950D01*
X1750Y20350D02*
X2800Y19300D01*
Y17350D02*
Y19300D01*
X6549Y19001D02*
Y25033D01*
X7000Y25484D01*
X6089Y25573D02*
X7000Y26484D01*
X5550Y17450D02*
Y18002D01*
X6549Y19001D01*
D44*
X7955Y6834D02*
D03*
Y4866D02*
D03*
D49*
X2800Y17350D02*
D03*
Y16366D02*
D03*
D50*
X7000Y12484D02*
D03*
Y13484D02*
D03*
Y14484D02*
D03*
Y15484D02*
D03*
Y16484D02*
D03*
Y17484D02*
D03*
Y18484D02*
D03*
Y19484D02*
D03*
Y20484D02*
D03*
Y21484D02*
D03*
Y22484D02*
D03*
Y23484D02*
D03*
Y24484D02*
D03*
Y25484D02*
D03*
X1000Y12484D02*
D03*
Y13484D02*
D03*
Y14484D02*
D03*
Y15484D02*
D03*
Y16484D02*
D03*
Y17484D02*
D03*
Y18484D02*
D03*
Y19484D02*
D03*
Y20484D02*
D03*
Y21484D02*
D03*
Y22484D02*
D03*
Y23484D02*
D03*
Y24484D02*
D03*
Y25484D02*
D03*
D51*
X7000Y26484D02*
D03*
X1000D02*
D03*
D52*
X7660Y22940D02*
D03*
X3600Y23450D02*
D03*
X4400Y17450D02*
D03*
X7050Y2950D02*
D03*
X8150D02*
D03*
X8100Y1600D02*
D03*
X7600Y700D02*
D03*
X6550Y750D02*
D03*
X1150Y7050D02*
D03*
X6300Y7800D02*
D03*
X7500Y8700D02*
D03*
X8050Y9600D02*
D03*
X7600Y21000D02*
D03*
X1850Y13250D02*
D03*
X2450Y14100D02*
D03*
X3350Y14850D02*
D03*
X2400Y15650D02*
D03*
X7600Y24750D02*
D03*
X5077Y19332D02*
D03*
X3277Y18582D02*
D03*
X3650Y17000D02*
D03*
X7627Y25882D02*
D03*
Y28532D02*
D03*
X7577Y27332D02*
D03*
X5677Y31182D02*
D03*
Y32832D02*
D03*
X6300Y34300D02*
D03*
X7027Y33232D02*
D03*
Y32032D02*
D03*
X6927Y30432D02*
D03*
X5727Y29382D02*
D03*
X4027Y25832D02*
D03*
Y27482D02*
D03*
X3977Y29582D02*
D03*
X3100Y27050D02*
D03*
X3050Y28850D02*
D03*
X1900Y30750D02*
D03*
X3850Y31800D02*
D03*
X3400Y34050D02*
D03*
X3000Y30400D02*
D03*
X1100Y29150D02*
D03*
X1850Y28000D02*
D03*
X427Y9982D02*
D03*
X450Y8650D02*
D03*
X950Y31700D02*
D03*
X3027Y24582D02*
D03*
X2027D02*
D03*
Y26082D02*
D03*
X1877Y33332D02*
D03*
X1927Y34932D02*
D03*
X-223Y34182D02*
D03*
Y33182D02*
D03*
X-173Y31382D02*
D03*
X-23Y30332D02*
D03*
X427Y27232D02*
D03*
X377Y24982D02*
D03*
Y22982D02*
D03*
Y20982D02*
D03*
Y19032D02*
D03*
Y17032D02*
D03*
Y14982D02*
D03*
Y12982D02*
D03*
X427Y11082D02*
D03*
X450Y7850D02*
D03*
X4250Y10900D02*
D03*
X5150Y9550D02*
D03*
X4100Y8850D02*
D03*
X4150Y12150D02*
D03*
X2350Y10600D02*
D03*
X3250Y11400D02*
D03*
X5500Y11000D02*
D03*
X3350Y9600D02*
D03*
X5350Y14050D02*
D03*
X3200Y21750D02*
D03*
X4800Y20931D02*
D03*
X5600Y20950D02*
D03*
X1750Y20350D02*
D03*
X5550Y17450D02*
D03*
M02*
